<svg width="1200" height="760" viewBox="0 0 1200 760" fill="none" xmlns="http://www.w3.org/2000/svg">
  <rect width="1200" height="760" fill="#0B1118"/>
  <rect x="430" y="80" width="340" height="100" rx="20" fill="#121923" stroke="#334155"/>
  <text x="515" y="140" fill="#E5EDF5" font-family="Arial" font-size="32">Area 0 Backbone</text>
  <rect x="160" y="300" width="280" height="110" rx="20" fill="#121923" stroke="#334155"/>
  <rect x="760" y="300" width="280" height="110" rx="20" fill="#121923" stroke="#334155"/>
  <text x="235" y="365" fill="#E5EDF5" font-family="Arial" font-size="30">Area 10</text>
  <text x="835" y="365" fill="#E5EDF5" font-family="Arial" font-size="30">Area 20 Stub</text>
  <rect x="120" y="530" width="180" height="80" rx="18" fill="#121923" stroke="#334155"/>
  <rect x="350" y="530" width="180" height="80" rx="18" fill="#121923" stroke="#334155"/>
  <rect x="720" y="530" width="180" height="80" rx="18" fill="#121923" stroke="#334155"/>
  <rect x="950" y="530" width="180" height="80" rx="18" fill="#121923" stroke="#334155"/>
  <text x="158" y="580" fill="#E5EDF5" font-family="Arial" font-size="24">Leaf A1</text>
  <text x="388" y="580" fill="#E5EDF5" font-family="Arial" font-size="24">Leaf A2</text>
  <text x="757" y="580" fill="#E5EDF5" font-family="Arial" font-size="24">Leaf B1</text>
  <text x="988" y="580" fill="#E5EDF5" font-family="Arial" font-size="24">Leaf B2</text>
  <line x1="510" y1="180" x2="320" y2="300" stroke="#38BDF8" stroke-width="8"/>
  <line x1="690" y1="180" x2="880" y2="300" stroke="#38BDF8" stroke-width="8"/>
  <line x1="250" y1="410" x2="210" y2="530" stroke="#64748B" stroke-width="8"/>
  <line x1="350" y1="410" x2="440" y2="530" stroke="#64748B" stroke-width="8"/>
  <line x1="850" y1="410" x2="810" y2="530" stroke="#64748B" stroke-width="8"/>
  <line x1="950" y1="410" x2="1040" y2="530" stroke="#64748B" stroke-width="8"/>
</svg>
